<svg width="156" height="44" viewBox="0 0 156 44" fill="none" xmlns="http://www.w3.org/2000/svg">
<path d="M113.287 0.401764H101.669V43.4082H113.287V0.401764Z" fill="#EA6852"/>
<path d="M156 0.233875H144.382V19.9244L132.815 0.230103L132.808 0.233875H121.193V43.2422H132.811V23.5517L144.383 43.2516L144.399 43.2422H156V0.233875Z" fill="#1C355E"/>
<path d="M35.4698 0.401764V0.414968L35.4521 0.401764L23.5343 18.3306L11.6183 0.401764H0V43.4101H11.6183V21.8126L16.4191 29.0369L23.5343 39.7432L30.6513 29.035L35.4698 21.7862V43.4101H47.0882V0.401764H35.4698Z" fill="#1C355E"/>
<path d="M83.2952 0.399872H65.462L52.8158 43.4101H65.6268L67.9253 35.0012L79.1679 28.0919H69.6301L74.3759 11.3929L79.1696 28.0919L83.1251 43.4082H95.9432L83.2952 0.399872Z" fill="#EA6852"/>
</svg>
